<svg xmlns="http://www.w3.org/2000/svg" viewBox="0 0 64 64">  <path fill="#656664" d="M16.9 15.4c3.8-3.5 8.7-5.6 14.2-5.9v-7a29 29 0 0 0-19.1 8l4.9 4.9zM9.6 31a22 22 0 0 1 5.9-14.2l-4.9-4.9A29 29 0 0 0 2.7 31h6.9zM33.1 2.5v7a22 22 0 0 1 14.2 5.9l4.9-4.9a29 29 0 0 0-19.1-8zM15.5 47.2A22 22 0 0 1 9.6 33h-7a29 29 0 0 0 7.9 19.1l5-4.9zM54.6 33a22 22 0 0 1-5.9 14.2l4.9 4.9A29 29 0 0 0 61.5 33h-6.9zm-5.9-16.2c3.5 3.8 5.6 8.7 5.9 14.2h7a29 29 0 0 0-7.9-19.1l-5 4.9zm-1.4 31.8a22.5 22.5 0 0 1-14.2 5.9v7a29 29 0 0 0 19.1-7.9l-4.9-5zm-16.2 5.9a22 22 0 0 1-14.2-5.9L12 53.5a29 29 0 0 0 19.1 7.9v-6.9z"/></svg>